<?xml version="1.0" encoding="UTF-8"?>
<!DOCTYPE svg PUBLIC "-//W3C//DTD SVG 1.1//EN" "http://www.w3.org/Graphics/SVG/1.1/DTD/svg11.dtd">
<svg xmlns="http://www.w3.org/2000/svg" version="1.1" width="225px" height="225px" style="shape-rendering:geometricPrecision; text-rendering:geometricPrecision; image-rendering:optimizeQuality; fill-rule:evenodd; clip-rule:evenodd" xmlns:xlink="http://www.w3.org/1999/xlink">
<g><path style="opacity:1" fill="#fefefe" d="M -0.5,-0.5 C 74.5,-0.5 149.5,-0.5 224.5,-0.5C 224.5,74.5 224.5,149.5 224.5,224.5C 149.5,224.5 74.5,224.5 -0.5,224.5C -0.5,149.5 -0.5,74.5 -0.5,-0.5 Z"/></g>
<g><path style="opacity:1" fill="#22a6df" d="M 103.5,29.5 C 106.167,29.5 108.833,29.5 111.5,29.5C 111.5,36.5 111.5,43.5 111.5,50.5C 106.641,43.9785 101.641,37.4785 96.5,31C 98.5938,29.6485 100.927,29.1485 103.5,29.5 Z"/></g>
<g><path style="opacity:1" fill="#a2d3ee" d="M 103.5,29.5 C 106.287,28.5233 109.287,28.19 112.5,28.5C 112.833,36.5898 112.499,43.9232 111.5,50.5C 111.5,43.5 111.5,36.5 111.5,29.5C 108.833,29.5 106.167,29.5 103.5,29.5 Z"/></g>
<g><path style="opacity:1" fill="#044d9a" d="M 98.5,92.5 C 91.6013,83.7163 84.9346,74.7163 78.5,65.5C 81.6873,54.4365 85.1873,43.4365 89,32.5C 95.9551,41.5774 102.788,50.7441 109.5,60C 105.911,70.8526 102.245,81.6859 98.5,92.5 Z"/></g>
<g><path style="opacity:1" fill="#1fa6df" d="M 145.5,65.5 C 139.553,75.0728 132.886,84.0728 125.5,92.5C 122.144,81.7537 118.478,71.087 114.5,60.5C 121.089,50.9892 127.922,41.6558 135,32.5C 138.805,43.4154 142.305,54.4154 145.5,65.5 Z"/></g>
<g><path style="opacity:1" fill="#0b65a8" d="M 143.5,35.5 C 149.758,37.6286 155.425,40.7953 160.5,45C 157.333,49.5 154.167,54 151,58.5C 147.994,50.9811 145.494,43.3145 143.5,35.5 Z"/></g>
<g><path style="opacity:1" fill="#064b99" d="M 72.5,57.5 C 64.6841,58.4924 56.6841,58.8257 48.5,58.5C 52.8304,53.3367 57.6638,48.67 63,44.5C 66.0299,49.0155 69.1966,53.3488 72.5,57.5 Z"/></g>
<g><path style="opacity:1" fill="#b5c1d8" d="M 72.5,57.5 C 73.0431,57.56 73.3764,57.8933 73.5,58.5C 69.1667,58.8333 64.8333,59.1667 60.5,59.5C 55.7446,59.5322 51.7446,59.1988 48.5,58.5C 56.6841,58.8257 64.6841,58.4924 72.5,57.5 Z"/></g>
<g><path style="opacity:1" fill="#177abf" d="M 78.5,65.5 C 84.9346,74.7163 91.6013,83.7163 98.5,92.5C 87.0073,93.6595 75.3407,93.8261 63.5,93C 56.4478,84.2817 49.7811,75.2817 43.5,66C 55.1619,65.5001 66.8286,65.3335 78.5,65.5 Z"/></g>
<g><path style="opacity:1" fill="#0265a8" d="M 145.5,65.5 C 157.171,65.3335 168.838,65.5001 180.5,66C 174.219,75.2817 167.552,84.2817 160.5,93C 148.659,93.8261 136.993,93.6595 125.5,92.5C 132.886,84.0728 139.553,75.0728 145.5,65.5 Z"/></g>
<g><path style="opacity:1" fill="#669b40" d="M 183.5,72.5 C 186.938,75.8597 189.272,80.0263 190.5,85C 184.61,88.3579 178.276,90.8579 171.5,92.5C 170.479,91.9984 170.312,91.3317 171,90.5C 175.802,84.8776 179.969,78.8776 183.5,72.5 Z"/></g>
<g><path style="opacity:1" fill="#1f7bc0" d="M 32.5,86.5 C 39.5708,88.6347 46.5708,90.968 53.5,93.5C 45.8388,96.1649 38.1722,98.8316 30.5,101.5C 30.163,96.496 30.8297,91.496 32.5,86.5 Z"/></g>
<g><path style="opacity:1" fill="#aa6727" d="M 89.5,119.5 C 78.8936,123.036 68.2269,126.369 57.5,129.5C 47.764,123.271 38.4307,116.438 29.5,109C 40.1609,105.501 50.8276,102.001 61.5,98.5C 71.2592,105.034 80.5926,112.034 89.5,119.5 Z"/></g>
<g><path style="opacity:1" fill="#669a41" d="M 167.5,131.5 C 156.875,126.733 145.875,122.733 134.5,119.5C 143.407,112.034 152.741,105.034 162.5,98.5C 173.183,102.172 183.85,105.839 194.5,109.5C 185.833,115.833 177.167,122.167 168.5,128.5C 167.614,129.325 167.281,130.325 167.5,131.5 Z"/></g>
<g><path style="opacity:1" fill="#de8f26" d="M 89.5,119.5 C 86.1664,130.501 82.8331,141.501 79.5,152.5C 68.4253,155.469 57.592,159.136 47,163.5C 49.7733,152.009 53.2733,140.676 57.5,129.5C 68.2269,126.369 78.8936,123.036 89.5,119.5 Z"/></g>
<g><path style="opacity:1" fill="#31671f" d="M 134.5,119.5 C 145.875,122.733 156.875,126.733 167.5,131.5C 170.794,142.206 173.96,152.873 177,163.5C 170.757,160.646 164.257,158.479 157.5,157C 152.812,155.559 148.479,153.559 144.5,151C 140.858,140.574 137.524,130.074 134.5,119.5 Z"/></g>
<g><path style="opacity:1" fill="#30671d" d="M 192.5,118.5 C 193.693,118.97 194.36,119.97 194.5,121.5C 193.497,126.846 192.497,132.18 191.5,137.5C 185.821,135.774 180.154,133.94 174.5,132C 180.967,128.021 186.967,123.521 192.5,118.5 Z"/></g>
<g><path style="opacity:1" fill="#a96524" d="M 47.5,132.5 C 48.2389,132.369 48.9056,132.536 49.5,133C 46.7383,140.451 44.0716,147.951 41.5,155.5C 38.1685,150.337 35.5018,144.837 33.5,139C 37.9568,136.349 42.6235,134.183 47.5,132.5 Z"/></g>
<g><path style="opacity:1" fill="#904014" d="M 111.5,135.5 C 111.5,146.833 111.5,158.167 111.5,169.5C 102.542,176.111 93.5421,182.777 84.5,189.5C 83.3342,178.181 83.1675,166.848 84,155.5C 93.325,149.002 102.492,142.335 111.5,135.5 Z"/></g>
<g><path style="opacity:1" fill="#d0531f" d="M 111.5,135.5 C 121.102,141.922 130.602,148.588 140,155.5C 140.832,166.848 140.666,178.181 139.5,189.5C 130.427,182.42 121.094,175.754 111.5,169.5C 111.5,158.167 111.5,146.833 111.5,135.5 Z"/></g>
<g><path style="opacity:1" fill="#d1531f" d="M 148.5,162.5 C 148.56,161.957 148.893,161.624 149.5,161.5C 157.192,163.897 164.859,166.397 172.5,169C 169.276,172.727 165.609,175.894 161.5,178.5C 156.679,173.503 152.346,168.169 148.5,162.5 Z"/></g>
<g><path style="opacity:1" fill="#dd8f23" d="M 75.5,161.5 C 76.8209,169.676 76.8209,178.009 75.5,186.5C 70.9953,184.751 66.9953,182.251 63.5,179C 67.6334,173.225 71.6334,167.391 75.5,161.5 Z"/></g>
<g><path style="opacity:1" fill="#c6a497" d="M 112.5,178.5 C 112.5,183.833 112.5,189.167 112.5,194.5C 114.5,194.5 116.5,194.5 118.5,194.5C 116.393,195.468 114.059,195.802 111.5,195.5C 111.167,189.07 111.5,183.403 112.5,178.5 Z"/></g>
<g><path style="opacity:1" fill="#903e12" d="M 112.5,178.5 C 119.156,182.499 125.489,186.999 131.5,192C 127.304,193.477 122.971,194.311 118.5,194.5C 116.5,194.5 114.5,194.5 112.5,194.5C 112.5,189.167 112.5,183.833 112.5,178.5 Z"/></g>
</svg>
