<?xml version="1.0" encoding="UTF-8"?>
<!DOCTYPE svg PUBLIC "-//W3C//DTD SVG 1.1//EN" "http://www.w3.org/Graphics/SVG/1.1/DTD/svg11.dtd">
<svg xmlns="http://www.w3.org/2000/svg" version="1.1" width="1278px" height="1265px" style="shape-rendering:geometricPrecision; text-rendering:geometricPrecision; image-rendering:optimizeQuality; fill-rule:evenodd; clip-rule:evenodd" xmlns:xlink="http://www.w3.org/1999/xlink">
<g><path style="opacity:0.991" fill="#72bea5" d="M 755.5,-0.5 C 755.833,-0.5 756.167,-0.5 756.5,-0.5C 756.126,75.3923 768.626,149.059 794,220.5C 844.787,351.288 936.287,440.121 1068.5,487C 1136.33,509.524 1206,520.357 1277.5,519.5C 1277.5,519.833 1277.5,520.167 1277.5,520.5C 1204.19,519.854 1132.85,531.354 1063.5,555C 913.385,611.794 817.885,717.961 777,873.5C 763.499,928.673 756.499,984.673 756,1041.5C 756.879,960.773 742.879,882.773 714,807.5C 661.386,682.889 571.219,598.056 443.5,553C 405.758,539.986 367.091,531.319 327.5,527C 356.754,671.163 444.42,752.829 590.5,772C 608.173,773.555 625.84,774.888 643.5,776C 576.244,774.512 513.577,790.512 455.5,824C 395.08,863.138 355.247,917.638 336,987.5C 326.611,1023.56 321.611,1060.22 321,1097.5C 321.931,1036.15 308.598,978.145 281,923.5C 237.667,848.896 173.5,802.729 88.5,785C 59.1575,778.758 29.4908,775.925 -0.5,776.5C -0.5,776.167 -0.5,775.833 -0.5,775.5C 61.6376,776.131 120.304,762.298 175.5,734C 244.169,694.231 288.336,635.731 308,558.5C 310.762,547.352 313.262,536.185 315.5,525C 288.897,522.352 262.23,520.686 235.5,520C 262.555,519.386 289.555,517.886 316.5,515.5C 319.35,494.948 320.85,474.281 321,453.5C 321.908,473.896 323.574,494.229 326,514.5C 403.568,504.979 475.734,480.145 542.5,440C 634.558,379.552 696.724,296.385 729,190.5C 747.497,128.185 756.331,64.5178 755.5,-0.5 Z"/></g>
<g><path style="opacity:0.977" fill="#72bea5" d="M 545.5,1264.5 C 545.167,1264.5 544.833,1264.5 544.5,1264.5C 545.879,1218.13 532.045,1177.13 503,1141.5C 476.965,1115.06 445.465,1099.06 408.5,1093.5C 395.887,1091.78 383.22,1090.62 370.5,1090C 406.101,1090.42 439.434,1082.08 470.5,1065C 509.576,1040.07 533.076,1004.57 541,958.5C 543.58,944.284 544.913,929.951 545,915.5C 545.037,950.649 553.371,983.649 570,1014.5C 595.311,1054.43 631.478,1078.26 678.5,1086C 692.076,1088.23 705.743,1089.57 719.5,1090C 680.867,1089.9 645.2,1099.9 612.5,1120C 575.202,1147.73 553.702,1184.9 548,1231.5C 546.835,1242.48 546.001,1253.48 545.5,1264.5 Z"/></g>
</svg>
