<?xml version="1.0" encoding="UTF-8"?>
<!DOCTYPE svg PUBLIC "-//W3C//DTD SVG 1.1//EN" "http://www.w3.org/Graphics/SVG/1.1/DTD/svg11.dtd">
<svg xmlns="http://www.w3.org/2000/svg" version="1.1" width="800px" height="800px" style="shape-rendering:geometricPrecision; text-rendering:geometricPrecision; image-rendering:optimizeQuality; fill-rule:evenodd; clip-rule:evenodd" xmlns:xlink="http://www.w3.org/1999/xlink">
<g><path style="opacity:0.953" fill="#010100" d="M 799.5,294.5 C 799.5,298.167 799.5,301.833 799.5,305.5C 762.53,363.326 725.696,421.326 689,479.5C 687.997,490.541 686.83,501.541 685.5,512.5C 688.891,513.438 691.391,515.438 693,518.5C 693.667,530.833 693.667,543.167 693,555.5C 690.181,559.493 686.347,561.16 681.5,560.5C 678.331,600.525 674.831,640.525 671,680.5C 670.293,682.081 669.46,683.581 668.5,685C 661.588,688.372 654.755,691.872 648,695.5C 644.46,710.202 640.793,724.869 637,739.5C 635.681,741.487 633.848,742.654 631.5,743C 620.167,743.667 608.833,743.667 597.5,743C 594.804,742.31 592.637,740.81 591,738.5C 589.322,734.468 587.156,730.801 584.5,727.5C 571.5,734 558.5,740.5 545.5,747C 531.822,746.742 518.155,746.908 504.5,747.5C 500.512,762.452 496.679,777.452 493,792.5C 492.033,795.621 490.2,797.954 487.5,799.5C 475.5,799.5 463.5,799.5 451.5,799.5C 449.193,798.023 447.36,796.023 446,793.5C 436.7,776.705 427.2,760.038 417.5,743.5C 331.517,739.748 245.517,736.414 159.5,733.5C 155.171,747.652 150.338,761.652 145,775.5C 144.215,777.286 143.049,778.786 141.5,780C 130.598,781.62 119.598,781.954 108.5,781C 106.333,780.167 104.833,778.667 104,776.5C 100.826,761.295 97.6593,746.128 94.5,731C 80.8168,730.654 67.1502,729.987 53.5,729C 51.714,728.215 50.214,727.049 49,725.5C 32.1312,639.655 15.9646,553.655 0.5,467.5C 0.69942,460.469 4.36609,456.969 11.5,457C 55.1628,454.363 98.8295,451.863 142.5,449.5C 138.831,404.309 134.831,359.142 130.5,314C 130.94,308.893 133.606,305.56 138.5,304C 176.174,298.785 213.841,293.618 251.5,288.5C 254.833,263.663 261.333,239.663 271,216.5C 275.985,211.553 281.319,211.22 287,215.5C 288.544,221.976 290.544,228.31 293,234.5C 299.248,243.419 306.248,251.752 314,259.5C 312.173,226.306 320.173,195.639 338,167.5C 354.26,146 368.26,123 380,98.5C 385.531,85.3753 388.698,71.7086 389.5,57.5C 390.155,40.2985 383.155,27.4652 368.5,19C 364.286,14.7998 363.452,9.96642 366,4.5C 368.133,2.14653 370.8,1.14653 374,1.5C 432.181,19.9057 480.181,52.9057 518,100.5C 553.162,150.474 564.329,205.474 551.5,265.5C 554.777,265.216 557.943,265.549 561,266.5C 562.064,259.542 562.731,252.542 563,245.5C 567.687,238.146 573.354,237.146 580,242.5C 586.306,251.64 592.806,260.64 599.5,269.5C 664.812,276.775 730.145,283.942 795.5,291C 797.027,292.032 798.36,293.199 799.5,294.5 Z M 505.5,118.5 C 506.906,118.973 507.573,119.973 507.5,121.5C 506.094,121.027 505.427,120.027 505.5,118.5 Z M 507.5,121.5 C 530.28,155.618 539.78,193.284 536,234.5C 534.599,246.908 532.765,259.241 530.5,271.5C 526.846,271.058 523.179,270.724 519.5,270.5C 520.967,266.298 521.967,261.965 522.5,257.5C 524.894,250.482 526.227,243.149 526.5,235.5C 532.645,195.531 526.312,157.531 507.5,121.5 Z M 761.5,306.5 C 765.871,306.875 770.204,307.541 774.5,308.5C 742.224,359.86 709.391,411.86 676,464.5C 672.153,462.328 668.319,460.328 664.5,458.5C 697.319,408.209 729.652,357.542 761.5,306.5 Z M 297.5,432.5 C 299.76,434.65 302.093,436.817 304.5,439C 285.293,440.619 266.127,442.119 247,443.5C 246.16,440.798 245.327,438.132 244.5,435.5C 262.189,434.732 279.855,433.732 297.5,432.5 Z M 328.5,432.5 C 331.76,433.774 334.76,435.44 337.5,437.5C 333.756,437.072 330.756,435.405 328.5,432.5 Z M 225.5,436.5 C 225.575,439.206 225.908,441.873 226.5,444.5C 205.115,445.405 183.781,446.738 162.5,448.5C 162.124,445.817 161.791,442.817 161.5,439.5C 182.841,438.64 204.174,437.64 225.5,436.5 Z M 564.5,447.5 C 567.86,447.616 571.193,447.949 574.5,448.5C 560.651,541.109 546.984,633.776 533.5,726.5C 530.167,726.833 526.833,727.167 523.5,727.5C 370.836,721.685 218.17,716.019 65.5,710.5C 65.1417,707.733 64.475,705.067 63.5,702.5C 217.477,708.61 371.477,714.277 525.5,719.5C 538.873,628.89 551.873,538.224 564.5,447.5 Z M 660.5,478.5 C 663.637,479.713 666.637,481.213 669.5,483C 667.925,492.729 666.925,502.562 666.5,512.5C 663.455,512.492 660.455,512.159 657.5,511.5C 658.665,500.519 659.665,489.519 660.5,478.5 Z M 666.5,530.5 C 669.747,531.252 673.081,531.752 676.5,532C 675.167,535 675.167,538 676.5,541C 669.213,542.493 661.88,543.66 654.5,544.5C 655.159,541.545 655.492,538.545 655.5,535.5C 659.135,534.886 662.802,534.552 666.5,534.5C 666.5,533.167 666.5,531.833 666.5,530.5 Z M 556.5,706.5 C 586.002,692.499 615.168,677.832 644,662.5C 647.495,629.89 650.329,597.223 652.5,564.5C 655.889,564.368 659.223,564.201 662.5,564C 658.764,599.76 655.264,635.594 652,671.5C 619.755,687.706 587.589,704.039 555.5,720.5C 555.167,720 554.833,719.5 554.5,719C 555.4,714.867 556.067,710.7 556.5,706.5 Z M 608.5,715.5 C 610.167,715.5 611.833,715.5 613.5,715.5C 613.5,714.5 613.5,713.5 613.5,712.5C 617.176,711.246 620.676,709.579 624,707.5C 623.502,712.832 622.669,718.166 621.5,723.5C 616.156,723.666 610.823,723.499 605.5,723C 602.539,719.082 603.539,716.582 608.5,715.5 Z M 119.5,754.5 C 120.117,754.389 120.617,754.056 121,753.5C 123.278,746.835 125.444,740.168 127.5,733.5C 131.454,732.235 135.454,732.235 139.5,733.5C 136.098,742.872 132.598,752.205 129,761.5C 126.281,762.444 123.448,762.777 120.5,762.5C 120.425,759.794 120.092,757.127 119.5,754.5 Z M 473.5,746.5 C 477.119,747.18 480.786,747.68 484.5,748C 480.972,758.614 478.305,769.447 476.5,780.5C 471.489,780.666 466.489,780.499 461.5,780C 459.699,777.557 458.032,775.057 456.5,772.5C 460.226,772.823 463.893,772.489 467.5,771.5C 469.974,763.271 471.974,754.938 473.5,746.5 Z"/></g>
<g><path style="opacity:1" fill="#f47e1f" d="M 496.5,104.5 C 496.932,105.71 497.599,106.71 498.5,107.5C 498.932,108.71 499.599,109.71 500.5,110.5C 500.5,111.167 500.833,111.5 501.5,111.5C 501.328,112.492 501.662,113.158 502.5,113.5C 502.5,114.167 502.833,114.5 503.5,114.5C 503.328,115.492 503.662,116.158 504.5,116.5C 504.328,117.492 504.662,118.158 505.5,118.5C 505.427,120.027 506.094,121.027 507.5,121.5C 526.312,157.531 532.645,195.531 526.5,235.5C 524.754,242.633 523.42,249.966 522.5,257.5C 521.967,261.965 520.967,266.298 519.5,270.5C 513.425,287.997 506.758,305.33 499.5,322.5C 500.354,328.358 503.688,331.358 509.5,331.5C 509.954,341.107 514.621,343.94 523.5,340C 538.246,329.257 551.746,317.09 564,303.5C 570.342,294.482 575.342,284.815 579,274.5C 579.464,275.094 579.631,275.761 579.5,276.5C 592.859,297.378 595.026,319.378 586,342.5C 576.942,364.544 564.276,384.211 548,401.5C 539.272,410.396 530.438,419.063 521.5,427.5C 463.127,430.748 404.627,434.415 346,438.5C 343.116,438.394 340.282,438.061 337.5,437.5C 334.76,435.44 331.76,433.774 328.5,432.5C 328.5,431.833 328.167,431.5 327.5,431.5C 323.538,428.512 319.538,425.512 315.5,422.5C 289.233,400.644 273.9,372.644 269.5,338.5C 268.667,325.185 268.334,311.851 268.5,298.5C 270.246,292.074 271.246,285.407 271.5,278.5C 272.6,268.43 275.1,258.763 279,249.5C 295.201,268.702 313.035,286.202 332.5,302C 339.847,303.621 344.181,300.788 345.5,293.5C 343.887,288.94 341.72,284.607 339,280.5C 337.523,276.571 336.356,272.571 335.5,268.5C 335.829,265.772 335.163,263.438 333.5,261.5C 330.495,240.037 333.328,219.371 342,199.5C 345.563,191.604 349.563,183.938 354,176.5C 372.642,152.234 387.975,125.901 400,97.5C 402.983,87.5659 405.65,77.5659 408,67.5C 409.37,55.9929 408.204,44.8262 404.5,34C 440.812,50.0053 471.479,73.5053 496.5,104.5 Z"/></g>
<g><path style="opacity:0.331" fill="#9b5115" d="M 526.5,235.5 C 526.227,243.149 524.894,250.482 522.5,257.5C 523.42,249.966 524.754,242.633 526.5,235.5 Z"/></g>
<g><path style="opacity:1" fill="#934c13" d="M 333.5,261.5 C 335.163,263.438 335.829,265.772 335.5,268.5C 334.388,266.401 333.721,264.067 333.5,261.5 Z"/></g>
<g><path style="opacity:1" fill="#537595" d="M 519.5,270.5 C 523.179,270.724 526.846,271.058 530.5,271.5C 528.788,280.676 526.288,289.676 523,298.5C 518.393,309.496 513.893,320.496 509.5,331.5C 503.688,331.358 500.354,328.358 499.5,322.5C 506.758,305.33 513.425,287.997 519.5,270.5 Z"/></g>
<g><path style="opacity:1" fill="#4c6e8e" d="M 547.5,281.5 C 550.734,281.205 553.734,281.871 556.5,283.5C 552.236,289.934 547.402,295.934 542,301.5C 543.497,294.81 545.331,288.143 547.5,281.5 Z"/></g>
<g><path style="opacity:1" fill="#ad5a17" d="M 271.5,278.5 C 271.246,285.407 270.246,292.074 268.5,298.5C 268.439,291.546 269.439,284.879 271.5,278.5 Z"/></g>
<g><path style="opacity:1" fill="#527596" d="M 579.5,276.5 C 580.675,276.281 581.675,276.614 582.5,277.5C 601.768,300.629 605.934,326.296 595,354.5C 582.512,381.662 565.346,405.495 543.5,426C 536.165,426.548 528.831,427.048 521.5,427.5C 530.438,419.063 539.272,410.396 548,401.5C 564.276,384.211 576.942,364.544 586,342.5C 595.026,319.378 592.859,297.378 579.5,276.5 Z"/></g>
<g><path style="opacity:1" fill="#527799" d="M 761.5,306.5 C 729.652,357.542 697.319,408.209 664.5,458.5C 662.073,458.477 659.74,457.977 657.5,457C 652.62,454.393 647.62,452.06 642.5,450C 641.01,449.255 640.01,448.088 639.5,446.5C 653.331,418.172 667.164,389.838 681,361.5C 682.107,352.117 677.94,348.283 668.5,350C 667.667,350.833 666.833,351.667 666,352.5C 651.628,381.411 637.128,410.244 622.5,439C 621.5,439.667 620.5,439.667 619.5,439C 609.374,433.622 599.041,428.622 588.5,424C 582.476,424.304 576.476,424.137 570.5,423.5C 589.538,403.438 604.038,380.438 614,354.5C 620.713,333.148 619.879,312.148 611.5,291.5C 614.784,290.343 618.118,290.176 621.5,291C 668.378,295.635 715.045,300.801 761.5,306.5 Z"/></g>
<g><path style="opacity:1" fill="#517698" d="M 297.5,432.5 C 279.855,433.732 262.189,434.732 244.5,435.5C 237.228,408.078 230.395,380.412 224,352.5C 221.256,341.715 215.59,339.715 207,346.5C 206.125,347.873 205.625,349.373 205.5,351C 212.249,379.496 218.916,407.996 225.5,436.5C 204.174,437.64 182.841,438.64 161.5,439.5C 160.883,439.389 160.383,439.056 160,438.5C 156.35,399.179 152.85,359.846 149.5,320.5C 182.764,315.841 216.098,311.841 249.5,308.5C 248.05,356.899 264.05,398.232 297.5,432.5 Z"/></g>
<g><path style="opacity:1" fill="#a95816" d="M 268.5,298.5 C 268.334,311.851 268.667,325.185 269.5,338.5C 267.949,331.066 267.282,323.4 267.5,315.5C 267.501,309.657 267.834,303.99 268.5,298.5 Z"/></g>
<g><path style="opacity:1" fill="#53687f" d="M 315.5,422.5 C 319.538,425.512 323.538,428.512 327.5,431.5C 326.127,431.657 324.793,431.49 323.5,431C 321.295,428.46 318.795,426.293 316,424.5C 315.536,423.906 315.369,423.239 315.5,422.5 Z"/></g>
<g><path style="opacity:1" fill="#4f7292" d="M 574.5,448.5 C 571.193,447.949 567.86,447.616 564.5,447.5C 564.5,446.167 564.5,444.833 564.5,443.5C 568.064,442.577 571.731,442.244 575.5,442.5C 575.795,444.735 575.461,446.735 574.5,448.5 Z"/></g>
<g><path style="opacity:1" fill="#6abe55" d="M 564.5,443.5 C 564.5,444.833 564.5,446.167 564.5,447.5C 551.873,538.224 538.873,628.89 525.5,719.5C 371.477,714.277 217.477,708.61 63.5,702.5C 61.7803,698.443 60.6137,694.11 60,689.5C 46.3746,617.876 33.208,546.21 20.5,474.5C 201.828,464 383.162,453.667 564.5,443.5 Z"/></g>
<g><path style="opacity:1" fill="#2bb259" d="M 660.5,478.5 C 659.665,489.519 658.665,500.519 657.5,511.5C 640.134,512.591 622.634,512.258 605,510.5C 599.81,510.69 596.81,513.356 596,518.5C 593.038,532.976 590.205,547.476 587.5,562C 587.527,568.186 590.527,571.686 596.5,572.5C 615.133,569.552 633.8,566.886 652.5,564.5C 650.329,597.223 647.495,629.89 644,662.5C 615.168,677.832 586.002,692.499 556.5,706.5C 568.594,619.84 580.594,533.174 592.5,446.5C 598.145,448.653 603.812,450.82 609.5,453C 626.519,461.51 643.519,470.01 660.5,478.5 Z"/></g>
<g><path style="opacity:1" fill="#030502" d="M 239.5,508.5 C 262.67,507.816 285.67,506.816 308.5,505.5C 380.48,502.429 452.48,500.263 524.5,499C 529.913,502.42 530.913,506.92 527.5,512.5C 526.5,513.333 525.5,514.167 524.5,515C 372.189,521.261 219.856,526.594 67.5,531C 60.8441,525.715 60.8441,520.382 67.5,515C 124.801,511.983 182.135,509.816 239.5,508.5 Z"/></g>
<g><path style="opacity:1" fill="#3d6d31" d="M 308.5,505.5 C 285.67,506.816 262.67,507.816 239.5,508.5C 241.631,507.686 243.964,507.186 246.5,507C 267.157,506.049 287.824,505.549 308.5,505.5 Z"/></g>
<g><path style="opacity:1" fill="#223c1b" d="M 613.5,528.5 C 626.191,527.319 638.858,527.652 651.5,529.5C 638.829,529.293 626.163,528.96 613.5,528.5 Z"/></g>
<g><path style="opacity:0.999" fill="#67ba54" d="M 613.5,528.5 C 626.163,528.96 638.829,529.293 651.5,529.5C 656.695,529.179 661.695,529.513 666.5,530.5C 666.5,531.833 666.5,533.167 666.5,534.5C 662.802,534.552 659.135,534.886 655.5,535.5C 641.313,537.027 627.147,538.693 613,540.5C 612.235,540.43 611.735,540.097 611.5,539.5C 611.646,535.613 612.313,531.946 613.5,528.5 Z"/></g>
<g><path style="opacity:1" fill="#2cb158" d="M 655.5,535.5 C 655.492,538.545 655.159,541.545 654.5,544.5C 654.082,545.222 653.416,545.722 652.5,546C 641.455,547.268 630.455,548.768 619.5,550.5C 616.223,550.216 613.057,550.549 610,551.5C 609.536,550.906 609.369,550.239 609.5,549.5C 609.549,545.922 610.215,542.589 611.5,539.5C 611.735,540.097 612.235,540.43 613,540.5C 627.147,538.693 641.313,537.027 655.5,535.5 Z"/></g>
<g><path style="opacity:1" fill="#1a6834" d="M 609.5,549.5 C 609.369,550.239 609.536,550.906 610,551.5C 613.057,550.549 616.223,550.216 619.5,550.5C 616.026,551.525 612.36,552.192 608.5,552.5C 608.263,551.209 608.596,550.209 609.5,549.5 Z"/></g>
<g><path style="opacity:1" fill="#020502" d="M 74.5,654.5 C 216.183,660.276 357.85,666.443 499.5,673C 507.091,677.821 507.424,683.155 500.5,689C 495.167,689.167 489.833,689.333 484.5,689.5C 348.155,683.861 211.821,678.027 75.5,672C 69.5333,668.608 68.0333,663.774 71,657.5C 72.1451,656.364 73.3117,655.364 74.5,654.5 Z"/></g>
<g><path style="opacity:0.118" fill="#228a45" d="M 613.5,712.5 C 613.5,713.5 613.5,714.5 613.5,715.5C 611.833,715.5 610.167,715.5 608.5,715.5C 609.659,713.75 611.326,712.75 613.5,712.5 Z"/></g>
<g><path style="opacity:1" fill="#29a151" d="M 127.5,733.5 C 125.444,740.168 123.278,746.835 121,753.5C 120.617,754.056 120.117,754.389 119.5,754.5C 118.883,754.389 118.383,754.056 118,753.5C 116.779,746.076 115.279,738.743 113.5,731.5C 118.619,730.897 123.285,731.564 127.5,733.5 Z"/></g>
<g><path style="opacity:1" fill="#2bb158" d="M 473.5,746.5 C 471.974,754.938 469.974,763.271 467.5,771.5C 463.893,772.489 460.226,772.823 456.5,772.5C 450.941,763.728 445.608,754.728 440.5,745.5C 442.333,745.167 444.167,744.833 446,744.5C 455.163,745.285 464.33,745.952 473.5,746.5 Z"/></g>
</svg>
