<?xml version="1.0" encoding="utf-8"?>
<!-- Generator: Adobe Illustrator 24.3.1, SVG Export Plug-In . SVG Version: 6.00 Build 0)  -->
<svg version="1.1" id="Layer_1" xmlns="http://www.w3.org/2000/svg" xmlns:xlink="http://www.w3.org/1999/xlink" x="0px" y="0px"
	 viewBox="0 0 145 61.4" style="enable-background:new 0 0 145 61.4;" xml:space="preserve">
<style type="text/css">
	.st0{fill-rule:evenodd;clip-rule:evenodd;fill:#003B51;}
	.st1{fill-rule:evenodd;clip-rule:evenodd;fill:#55C5CF;}
	.st2{fill-rule:evenodd;clip-rule:evenodd;fill:#247C8B;}
	.st3{fill-rule:evenodd;clip-rule:evenodd;fill:#005672;}
	.st4{fill-rule:evenodd;clip-rule:evenodd;fill:#312E31;}
</style>
<g>
	<path id="Fill-1" class="st0" d="M11.2,57.9c0,0.5-0.1,0.9-0.2,1.4H20c0.6,1.4,1.9,2.3,3.5,2.3c2,0,3.7-1.7,3.7-3.8
		c0-2-1.7-3.8-3.7-3.8c-1.6,0-2.9,0.9-3.5,2.3h-9.1C11.1,56.9,11.2,57.3,11.2,57.9"/>
	<path id="Fill-4" class="st1" d="M5.1,61.6c2,0,3.7-1.7,3.7-3.8c0-2.1-1.7-3.7-3.7-3.7s-3.7,1.7-3.7,3.8C1.4,60,3,61.6,5.1,61.6"/>
	<path id="Fill-7" class="st0" d="M17.3,3.8c0-0.5,0.1-0.9,0.2-1.4H8.5C8,0.9,6.6,0,5.1,0C3,0,1.3,1.7,1.3,3.8S3,7.5,5,7.5
		c1.6,0,2.9-0.9,3.5-2.3h9.1C17.5,4.7,17.3,4.2,17.3,3.8"/>
	<path id="Fill-10" class="st1" d="M23.5,0c-2,0-3.7,1.7-3.7,3.8s1.7,3.8,3.7,3.8s3.7-1.7,3.7-3.8S25.5,0,23.5,0"/>
	<path id="Fill-12" class="st2" d="M14.7,21.7c0-0.5,0.1-0.9,0.2-1.4h-3.7c-0.6-1.4-1.9-2.3-3.5-2.3c-2,0-3.7,1.7-3.7,3.8
		s1.7,3.8,3.7,3.8c1.6,0,2.9-0.9,3.5-2.3h3.7C14.8,22.8,14.7,22.3,14.7,21.7"/>
	<path id="Fill-14" class="st1" d="M20.8,18.1c-2,0-3.7,1.7-3.7,3.8s1.7,3.8,3.7,3.8s3.7-1.7,3.7-3.8S22.8,18.1,20.8,18.1"/>
	<path id="Fill-16" class="st3" d="M19.2,12.8c0-0.5,0.1-0.9,0.2-1.4H7.2C6.6,10,5.3,9.1,3.7,9.1c-2,0-3.7,1.7-3.7,3.8
		c0,2,1.7,3.8,3.7,3.8c1.6,0,2.9-0.9,3.5-2.3h12.3C19.3,13.7,19.2,13.3,19.2,12.8"/>
	<path id="Fill-18" class="st1" d="M25.4,9c-2,0-3.7,1.7-3.7,3.8c0,2,1.7,3.8,3.7,3.8s3.7-1.7,3.7-3.8S27.4,9,25.4,9"/>
	<path id="Fill-20" class="st2" d="M13.8,39.8c0,0.5-0.1,0.9-0.2,1.4h3.7c0.6,1.4,1.9,2.3,3.5,2.3c2,0,3.7-1.7,3.7-3.8
		c0-2-1.7-3.8-3.7-3.8c-1.6,0-2.9,0.9-3.5,2.3h-3.7C13.8,38.9,13.8,39.3,13.8,39.8"/>
	<path id="Fill-22" class="st1" d="M7.8,43.6c2,0,3.7-1.7,3.7-3.8c0-2-1.7-3.8-3.7-3.8s-3.7,1.7-3.7,3.8C4,41.9,5.7,43.6,7.8,43.6"
		/>
	<path id="Fill-24" class="st3" d="M9.9,48.9c0,0.5-0.1,0.9-0.2,1.4h11.7c0.6,1.4,1.9,2.3,3.5,2.3c2,0,3.7-1.7,3.7-3.8
		c0-2-1.7-3.8-3.7-3.8c-1.6,0-2.9,0.9-3.5,2.3H9.6C9.8,47.8,9.9,48.4,9.9,48.9"/>
	<path id="Fill-26" class="st1" d="M3.7,52.6c2,0,3.7-1.7,3.7-3.8c0-2-1.7-3.8-3.7-3.8S0,46.7,0,48.8C0,50.9,1.7,52.6,3.7,52.6"/>
	<path id="Fill-28" class="st1" d="M18,30.8c0-2-1.7-3.8-3.7-3.8c-2,0-3.7,1.7-3.7,3.8c0,2,1.7,3.8,3.7,3.8
		C16.3,34.5,18,32.8,18,30.8"/>
	<path id="Fill-30" class="st4" d="M35,56c0-2,1.4-3.3,3.3-3.3c1,0,1.7,0.3,2.3,0.9L40,54.2c-0.4-0.4-0.9-0.7-1.6-0.7
		c-1.4,0-2.3,1-2.3,2.4c0,1.4,0.9,2.5,2.4,2.5c0.7,0,1.2-0.1,1.6-0.4v-1.2h-1.7v-0.9H41v2.5c-0.4,0.4-1.3,0.8-2.5,0.8
		C36.5,59.3,35,57.9,35,56"/>
	<path id="Fill-32" class="st4" d="M45.2,56.9c-0.1-0.6-0.4-0.9-1.1-0.9c-0.7,0-1,0.4-1.2,0.9H45.2z M44.2,58.5
		c0.5,0,0.9-0.2,1.2-0.4l0.6,0.6c-0.4,0.4-0.9,0.7-1.7,0.7c-1.4,0-2.2-0.9-2.2-2.1c0-1.2,0.9-2.1,2.1-2.1c1.4,0,2.1,1,2.1,2.4h-3.2
		C43.1,58.1,43.5,58.5,44.2,58.5L44.2,58.5z"/>
	<path id="Fill-34" class="st4" d="M47.1,55.2H48V56c0.2-0.5,0.7-0.8,1.4-0.8c0.9,0,1.5,0.7,1.5,1.7v2.4H50V57
		c0-0.6-0.3-0.9-0.8-0.9c-0.7,0-1,0.4-1,1v2.2h-0.9v-4H47.1z"/>
	<path id="Fill-36" class="st4" d="M54.9,56.9c-0.1-0.6-0.4-0.9-1.1-0.9s-1,0.4-1.2,0.9H54.9z M53.9,58.5c0.5,0,0.9-0.2,1.2-0.4
		l0.6,0.6c-0.4,0.4-0.9,0.7-1.7,0.7c-1.4,0-2.2-0.9-2.2-2.1c0-1.2,0.9-2.1,2.1-2.1c1.4,0,2.1,1,2.1,2.4h-3.2
		C52.8,58.1,53.2,58.5,53.9,58.5L53.9,58.5z"/>
	<path id="Fill-38" class="st4" d="M57,57.9V56h-0.6v-0.8H57v-2.1h0.9v2.1H59V56h-1.1v1.9c0,0.4,0.1,0.6,0.4,0.6
		c0.2,0,0.4-0.1,0.5-0.2l0.4,0.7c-0.2,0.2-0.5,0.4-1,0.4C57.5,59.3,57,58.9,57,57.9"/>
	<path id="Fill-40" class="st4" d="M59.9,59.2h1v-4H60L59.9,59.2L59.9,59.2z M59.7,53.6c0-0.4,0.3-0.7,0.7-0.7s0.7,0.3,0.7,0.7
		c0,0.4-0.3,0.7-0.7,0.7S59.7,54,59.7,53.6L59.7,53.6z"/>
	<path id="Fill-42" class="st4" d="M61.8,57.2c0-1.2,0.9-2.1,2.1-2.1c0.7,0,1.2,0.3,1.6,0.8l-0.7,0.6c-0.2-0.3-0.5-0.4-0.9-0.4
		c-0.7,0-1.2,0.5-1.2,1.2c0,0.7,0.4,1.2,1.2,1.2c0.5,0,0.8-0.2,1-0.4l0.7,0.6c-0.4,0.4-0.9,0.7-1.7,0.7
		C62.6,59.3,61.8,58.4,61.8,57.2"/>
	<path id="Fill-43" class="st4" d="M66,58.5l0.7-0.5c0.2,0.4,0.7,0.5,1.1,0.5c0.5,0,0.7-0.1,0.7-0.4s-0.3-0.4-0.9-0.6
		c-0.6-0.1-1.2-0.4-1.2-1.2s0.7-1.2,1.4-1.2c0.7,0,1.1,0.3,1.4,0.6l-0.6,0.6c-0.2-0.2-0.4-0.4-0.8-0.4c-0.4,0-0.6,0.1-0.6,0.4
		c0,0.3,0.2,0.4,0.9,0.5c0.7,0.1,1.3,0.4,1.3,1.2c0,0.7-0.4,1.2-1.5,1.2C66.9,59.3,66.3,58.9,66,58.5"/>
	<path id="Fill-44" class="st4" d="M72,58l0.8-0.4c0.3,0.5,0.7,0.9,1.5,0.9c0.7,0,1.2-0.4,1.2-0.9c0-0.6-0.4-0.8-1.1-1.2l-0.4-0.2
		c-0.9-0.4-1.5-0.9-1.5-1.9c0-0.9,0.7-1.7,1.8-1.7c0.9,0,1.4,0.3,1.8,1l-0.8,0.5c-0.2-0.4-0.5-0.7-1-0.7s-0.9,0.3-0.9,0.7
		c0,0.5,0.3,0.7,0.9,1l0.4,0.2c1.1,0.5,1.7,1,1.7,2c0,1.2-0.9,1.8-2.1,1.8C73.1,59.3,72.4,58.7,72,58"/>
	<path id="Fill-45" class="st4" d="M80.5,57.2c0-0.7-0.4-1.2-1.2-1.2s-1.2,0.5-1.2,1.2c0,0.7,0.4,1.2,1.2,1.2
		C80,58.5,80.5,57.9,80.5,57.2 M77.1,57.2c0-1.2,0.9-2.1,2.2-2.1s2.2,0.9,2.2,2.1c0,1.2-0.9,2.1-2.2,2.1
		C78.2,59.3,77.1,58.4,77.1,57.2"/>
	<path id="Fill-46" class="st4" d="M82.1,57.2c0-1.2,0.9-2.1,2.1-2.1c0.7,0,1.2,0.3,1.6,0.8l-0.7,0.6C85,56.2,84.7,56,84.2,56
		c-0.7,0-1.2,0.5-1.2,1.2c0,0.7,0.4,1.2,1.2,1.2c0.5,0,0.8-0.2,1-0.4l0.7,0.6c-0.4,0.4-0.9,0.7-1.7,0.7
		C83.1,59.3,82.1,58.4,82.1,57.2"/>
	<path id="Fill-47" class="st4" d="M86.6,59.2h0.9v-4h-0.9V59.2z M86.5,53.6c0-0.4,0.3-0.7,0.7-0.7s0.7,0.3,0.7,0.7
		c0,0.4-0.3,0.7-0.7,0.7S86.5,54,86.5,53.6L86.5,53.6z"/>
	<path id="Fill-48" class="st4" d="M91.7,56.9c-0.1-0.6-0.4-0.9-1.1-0.9s-1,0.4-1.2,0.9H91.7z M90.8,58.5c0.5,0,0.9-0.2,1.2-0.4
		l0.6,0.6c-0.4,0.4-0.9,0.7-1.7,0.7c-1.4,0-2.2-0.9-2.2-2.1c0-1.2,0.9-2.1,2.1-2.1c1.4,0,2.1,1,2.1,2.4h-3.2
		C89.6,58.1,90,58.5,90.8,58.5L90.8,58.5z"/>
	<path id="Fill-49" class="st4" d="M93.7,57.9V56h-0.6v-0.8h0.6v-2.1h0.9v2.1h1.1V56h-1.1v1.9c0,0.4,0.1,0.6,0.4,0.6
		c0.2,0,0.4-0.1,0.5-0.2l0.4,0.7c-0.2,0.2-0.5,0.4-1,0.4C94.3,59.3,93.7,58.9,93.7,57.9"/>
	<path id="Fill-50" class="st4" d="M98,58.9l-1.7-3.6h1.1l0.9,2c0.1,0.3,0.2,0.8,0.2,0.8s0.1-0.5,0.2-0.8l0.9-2h1l-2.6,6h-1L98,58.9
		z"/>
	<path id="Fill-51" class="st4" d="M106.5,57.2c0-0.7-0.4-1.2-1.2-1.2s-1.2,0.5-1.2,1.2c0,0.7,0.4,1.2,1.2,1.2
		C106.1,58.5,106.5,57.9,106.5,57.2 M103.2,57.2c0-1.2,0.9-2.1,2.2-2.1s2.2,0.9,2.2,2.1c0,1.2-0.9,2.1-2.2,2.1
		S103.2,58.4,103.2,57.2"/>
	<path id="Fill-52" class="st4" d="M108.6,56H108v-0.8h0.7v-1.6c0-0.9,0.4-1.4,1.3-1.4c0.5,0,0.9,0.2,1.2,0.5l-0.6,0.6
		c-0.1-0.1-0.2-0.2-0.4-0.2c-0.2,0-0.4,0.1-0.4,0.6v1.6h1.1V56h-1.1v3.2h-0.9L108.6,56L108.6,56z"/>
	<path id="Fill-53" class="st4" d="M117.2,57.5l-0.8-2c-0.1-0.4-0.3-0.9-0.3-0.9s-0.1,0.6-0.3,0.9l-0.8,2H117.2z M116,52.6h0.1
		l2.8,6.6h-1l-0.4-0.9h-3l-0.4,0.9h-0.9L116,52.6z"/>
	<path id="Fill-54" class="st4" d="M119.7,55.2h0.9V56c0.3-0.5,0.7-0.8,1.2-0.8c0.6,0,0.9,0.3,1.2,0.8c0.3-0.5,0.8-0.8,1.4-0.8
		c0.9,0,1.5,0.7,1.5,1.7v2.5h-0.9V57c0-0.6-0.2-0.9-0.7-0.9c-0.6,0-0.9,0.4-0.9,1v2.2h-0.9V57c0-0.6-0.2-0.9-0.7-0.9
		c-0.6,0-0.9,0.4-0.9,1v2.2h-0.9v-4.1H119.7z"/>
	<path id="Fill-55" class="st4" d="M129.9,56.9c-0.1-0.6-0.4-0.9-1.1-0.9s-1,0.4-1.2,0.9H129.9z M129,58.5c0.5,0,0.9-0.2,1.2-0.4
		l0.6,0.6c-0.4,0.4-0.9,0.7-1.7,0.7c-1.4,0-2.2-0.9-2.2-2.1c0-1.2,0.9-2.1,2.1-2.1c1.4,0,2.1,1,2.1,2.4h-3.2
		C127.8,58.1,128.3,58.5,129,58.5L129,58.5z"/>
	<path id="Fill-56" class="st4" d="M131.8,55.2h0.9V56c0.3-0.7,0.7-0.8,1.2-0.8c0.3,0,0.5,0.1,0.7,0.1l-0.3,0.9
		c-0.1-0.1-0.3-0.1-0.5-0.1c-0.6,0-0.9,0.4-0.9,1.2v2h-0.9L131.8,55.2L131.8,55.2z"/>
	<path id="Fill-57" class="st4" d="M135.2,59.2h0.9v-4h-0.9V59.2z M135.1,53.6c0-0.4,0.3-0.7,0.7-0.7s0.7,0.3,0.7,0.7
		c0,0.4-0.3,0.7-0.7,0.7S135.1,54,135.1,53.6L135.1,53.6z"/>
	<path id="Fill-58" class="st4" d="M137,57.2c0-1.2,0.9-2.1,2.1-2.1c0.7,0,1.2,0.3,1.6,0.8l-0.7,0.6c-0.2-0.3-0.5-0.4-0.9-0.4
		c-0.7,0-1.2,0.5-1.2,1.2c0,0.7,0.4,1.2,1.2,1.2c0.5,0,0.8-0.2,1-0.4l0.7,0.6c-0.4,0.4-0.9,0.7-1.7,0.7C138,59.3,137,58.4,137,57.2"
		/>
	<path id="Fill-59" class="st4" d="M143,57.5c-0.4,0-0.7,0.1-0.7,0.5s0.3,0.5,0.8,0.5c0.6,0,0.9-0.3,0.9-0.7v-0.3
		C144.1,57.5,143,57.5,143,57.5z M143.3,55.9c-0.5,0-0.8,0.2-1,0.5l-0.6-0.6c0.4-0.4,0.8-0.7,1.7-0.7c0.9,0,1.7,0.6,1.7,1.7v2.4
		h-0.9v-0.6c-0.3,0.4-0.7,0.7-1.2,0.7c-0.8,0-1.4-0.4-1.4-1.3c0-0.8,0.7-1.2,1.6-1.2h1.1C144.1,56.2,143.8,55.9,143.3,55.9
		L143.3,55.9z"/>
	<path id="Fill-60" class="st4" d="M32.5,26.5c0-12.5,8.8-21.5,21.4-21.5c6.8,0,11.8,1.9,15.2,5.8l-5.9,5.8
		c-2.1-2.2-4.5-3.8-9.4-3.8c-7.6,0-12.5,5.9-12.5,13.8c0,7.8,5.1,13.8,13.9,13.8c2.7,0,6-0.5,8.2-1.5v-6.2H53.3v-7.7h18.1v18.2
		c-2.4,2-8.5,4.9-16.1,4.9C41.5,48.1,32.5,38.9,32.5,26.5"/>
	<path id="Fill-61" class="st4" d="M75.1,39.2l7-4.1c1.9,3,4.3,5.3,8.5,5.3c3.6,0,5.9-1.8,5.9-4.3c0-3-2.3-4.1-6.3-5.7L88,29.5
		c-6.2-2.7-10.4-6-10.4-13C77.6,9.9,82.6,5,90.3,5c5.5,0,9.4,1.9,12.3,7l-6.7,4.3c-1.4-2.7-3.1-3.7-5.6-3.7c-2.5,0-4.1,1.6-4.1,3.7
		c0,2.6,1.6,3.6,5.3,5.3l2.2,0.9c7.3,3.2,11.5,6.4,11.5,13.6c0,7.8-6.1,12.1-14.4,12.1C82.9,48.1,77.6,44.2,75.1,39.2"/>
	<path id="Fill-62" class="st4" d="M119.3,35.5l3-7.3c1.2-3,2.5-7.5,2.5-7.5s1.3,4.6,2.5,7.5l3,7.3H119.3z M125.5,5.4h-1.1
		l-18.3,42.1h8.3l2-4.8h17l2,4.8h9.1L125.5,5.4z"/>
</g>
</svg>
