<?xml version="1.0" encoding="UTF-8"?>
<!DOCTYPE svg PUBLIC "-//W3C//DTD SVG 1.1//EN" "http://www.w3.org/Graphics/SVG/1.1/DTD/svg11.dtd">
<svg xmlns="http://www.w3.org/2000/svg" version="1.1" width="631px" height="630px" style="shape-rendering:geometricPrecision; text-rendering:geometricPrecision; image-rendering:optimizeQuality; fill-rule:evenodd; clip-rule:evenodd" xmlns:xlink="http://www.w3.org/1999/xlink">
<g><path style="opacity:1" fill="#fefefe" d="M -0.5,-0.5 C 209.833,-0.5 420.167,-0.5 630.5,-0.5C 630.5,209.5 630.5,419.5 630.5,629.5C 420.167,629.5 209.833,629.5 -0.5,629.5C -0.5,419.5 -0.5,209.5 -0.5,-0.5 Z"/></g>
<g><path style="opacity:1" fill="#e1777c" d="M 143.5,58.5 C 139.342,58.1417 135.176,57.8084 131,57.5C 125.667,57.7815 120.5,58.7815 115.5,60.5C 117.858,58.8714 120.524,57.7048 123.5,57C 130.418,56.071 137.085,56.571 143.5,58.5 Z"/></g>
<g><path style="opacity:1" fill="#e97e7e" d="M 331.5,56.5 C 324.703,56.6551 318.037,57.6551 311.5,59.5C 317.778,55.6458 324.444,54.6458 331.5,56.5 Z"/></g>
<g><path style="opacity:1" fill="#f15858" d="M 143.5,58.5 C 154.328,62.6619 161.328,70.3286 164.5,81.5C 165.229,86.1304 165.563,90.7971 165.5,95.5C 164.249,101.844 162.082,107.844 159,113.5C 148.683,123.92 138.183,133.92 127.5,143.5C 124.171,149.344 119.838,154.511 114.5,159C 113.552,159.483 112.552,159.649 111.5,159.5C 111.649,160.552 111.483,161.552 111,162.5C 100.109,173.056 89.6091,183.889 79.5,195C 69.9858,202.1 59.3191,204.433 47.5,202C 37.0353,198.035 29.702,190.869 25.5,180.5C 24.962,178.883 24.6287,177.216 24.5,175.5C 24.3461,168.07 25.0128,160.737 26.5,153.5C 27.3814,150.071 29.0481,147.071 31.5,144.5C 47.4939,128.173 63.4939,111.839 79.5,95.5C 85.7902,91.2098 91.1235,85.8765 95.5,79.5C 101.535,72.4639 108.202,66.1305 115.5,60.5C 120.5,58.7815 125.667,57.7815 131,57.5C 135.176,57.8084 139.342,58.1417 143.5,58.5 Z"/></g>
<g><path style="opacity:1" fill="#f15858" d="M 331.5,56.5 C 333.927,56.523 336.26,57.023 338.5,58C 341.721,59.104 344.388,60.9374 346.5,63.5C 346.33,64.8221 346.663,65.9887 347.5,67C 346.5,67.3333 345.5,67.6667 344.5,68C 345.711,68.8928 345.711,69.7261 344.5,70.5C 343.604,69.4937 342.938,69.4937 342.5,70.5C 345.523,74.54 347.189,73.8733 347.5,68.5C 348.833,68.5 350.167,68.5 351.5,68.5C 351.827,71.5107 353.161,74.0107 355.5,76C 354.572,76.3879 353.905,77.0546 353.5,78C 355.54,79.7769 357.04,81.9435 358,84.5C 358.499,89.8229 358.666,95.1563 358.5,100.5C 357.77,105.294 355.937,109.627 353,113.5C 304.474,163.692 255.641,213.525 206.5,263C 202.151,266.493 197.151,268.327 191.5,268.5C 184.778,267.927 178.111,266.927 171.5,265.5C 164.441,262.107 159.441,256.774 156.5,249.5C 154.705,240.96 154.039,232.293 154.5,223.5C 156.055,220.575 157.722,217.575 159.5,214.5C 159.351,213.448 159.517,212.448 160,211.5C 194.525,176.145 229.025,141.145 263.5,106.5C 266.727,102.969 270.561,100.302 275,98.5C 275.333,97.1667 275.667,95.8333 276,94.5C 278.454,92.5588 280.287,90.2254 281.5,87.5C 287.662,81.1704 293.662,74.6704 299.5,68C 303.12,64.5335 307.12,61.7001 311.5,59.5C 318.037,57.6551 324.703,56.6551 331.5,56.5 Z"/></g>
<g><path style="opacity:1" fill="#f15858" d="M 547.5,70.5 C 547.945,75.2671 549.445,79.6004 552,83.5C 552.756,90.2166 552.589,96.8833 551.5,103.5C 550.379,107.474 548.546,111.14 546,114.5C 513.435,147.899 480.602,181.233 447.5,214.5C 446.5,214.5 445.5,214.5 444.5,214.5C 444.5,215.5 444.5,216.5 444.5,217.5C 443.167,217.5 441.833,217.5 440.5,217.5C 439.833,219.5 439.167,221.5 438.5,223.5C 437.167,223.5 435.833,223.5 434.5,223.5C 434.5,224.833 434.5,226.167 434.5,227.5C 433.5,227.5 432.5,227.5 431.5,227.5C 431.646,229.942 430.813,230.609 429,229.5C 424.227,232.436 420.727,236.436 418.5,241.5C 416.674,241.92 414.674,241.92 412.5,241.5C 412.917,244.079 412.25,246.246 410.5,248C 411.571,249.825 410.904,250.992 408.5,251.5C 407.571,252.689 407.238,254.022 407.5,255.5C 343.002,323.002 277.668,390.002 211.5,456.5C 200.153,460.501 188.487,461.501 176.5,459.5C 161.999,450.217 155.832,436.884 158,419.5C 159.378,414.372 161.711,409.705 165,405.5C 185.954,383.898 207.12,362.564 228.5,341.5C 230.914,340.089 232.581,338.089 233.5,335.5C 246.221,322.447 258.888,309.447 271.5,296.5C 276.194,293.806 279.861,290.139 282.5,285.5C 294.861,272.807 307.194,260.14 319.5,247.5C 323.167,245.833 325.833,243.167 327.5,239.5C 332.5,233.833 337.833,228.5 343.5,223.5C 345.199,223.66 346.866,223.494 348.5,223C 347.692,222.692 347.025,222.192 346.5,221.5C 347.982,219.517 349.649,217.684 351.5,216C 353.467,216.24 355.3,217.073 357,218.5C 359.167,217 361,215.167 362.5,213C 361.073,211.3 360.24,209.467 360,207.5C 365.1,202.908 369.6,197.908 373.5,192.5C 403.314,161.097 433.314,130.097 463.5,99.5C 464.873,99.6567 466.207,99.49 467.5,99C 469.324,95.6854 471.324,92.5187 473.5,89.5C 482.325,80.1748 491.325,71.0082 500.5,62C 514.852,54.188 528.852,54.8547 542.5,64C 544.539,65.9263 546.206,68.093 547.5,70.5 Z"/></g>
<g><path style="opacity:1" fill="#ea7375" d="M 547.5,70.5 C 553.543,77.6657 555.71,85.9991 554,95.5C 553.667,97.8333 553.333,100.167 553,102.5C 552.617,103.056 552.117,103.389 551.5,103.5C 552.589,96.8833 552.756,90.2166 552,83.5C 549.445,79.6004 547.945,75.2671 547.5,70.5 Z"/></g>
<g><path style="opacity:1" fill="#eb6163" d="M 346.5,63.5 C 349.394,64.8823 351.894,66.8823 354,69.5C 360.66,79.2394 362.16,89.5727 358.5,100.5C 358.666,95.1563 358.499,89.8229 358,84.5C 357.04,81.9435 355.54,79.7769 353.5,78C 353.905,77.0546 354.572,76.3879 355.5,76C 353.161,74.0107 351.827,71.5107 351.5,68.5C 350.167,68.5 348.833,68.5 347.5,68.5C 347.189,73.8733 345.523,74.54 342.5,70.5C 342.938,69.4937 343.604,69.4937 344.5,70.5C 345.711,69.7261 345.711,68.8928 344.5,68C 345.5,67.6667 346.5,67.3333 347.5,67C 346.663,65.9887 346.33,64.8221 346.5,63.5 Z"/></g>
<g><path style="opacity:1" fill="#e26e71" d="M 95.5,79.5 C 91.1235,85.8765 85.7902,91.2098 79.5,95.5C 84.5,89.8333 89.8333,84.5 95.5,79.5 Z"/></g>
<g><path style="opacity:1" fill="#f2aead" d="M 164.5,81.5 C 165.973,84.0169 166.64,86.8502 166.5,90C 166.494,92.0326 166.161,93.866 165.5,95.5C 165.563,90.7971 165.229,86.1304 164.5,81.5 Z"/></g>
<g><path style="opacity:1" fill="#e86c6b" d="M 281.5,87.5 C 280.287,90.2254 278.454,92.5588 276,94.5C 275.667,95.8333 275.333,97.1667 275,98.5C 270.561,100.302 266.727,102.969 263.5,106.5C 268.79,99.6675 274.79,93.3341 281.5,87.5 Z"/></g>
<g><path style="opacity:1" fill="#e56e70" d="M 473.5,89.5 C 471.324,92.5187 469.324,95.6854 467.5,99C 466.207,99.49 464.873,99.6567 463.5,99.5C 466.5,95.8333 469.833,92.5 473.5,89.5 Z"/></g>
<g><path style="opacity:1" fill="#e87373" d="M 26.5,153.5 C 25.0128,160.737 24.3461,168.07 24.5,175.5C 23.5151,171.366 23.1818,167.032 23.5,162.5C 23.1324,158.956 24.1324,155.956 26.5,153.5 Z"/></g>
<g><path style="opacity:1" fill="#fcd2d5" d="M 23.5,162.5 C 23.1818,167.032 23.5151,171.366 24.5,175.5C 24.6287,177.216 24.962,178.883 25.5,180.5C 24.0337,179.653 23.2004,178.32 23,176.5C 22.1849,171.648 22.3516,166.981 23.5,162.5 Z"/></g>
<g><path style="opacity:1" fill="#ec6260" d="M 373.5,192.5 C 369.6,197.908 365.1,202.908 360,207.5C 360.24,209.467 361.073,211.3 362.5,213C 361,215.167 359.167,217 357,218.5C 355.3,217.073 353.467,216.24 351.5,216C 349.649,217.684 347.982,219.517 346.5,221.5C 347.025,222.192 347.692,222.692 348.5,223C 346.866,223.494 345.199,223.66 343.5,223.5C 352.779,212.553 362.779,202.22 373.5,192.5 Z"/></g>
<g><path style="opacity:1" fill="#e47279" d="M 159.5,214.5 C 157.722,217.575 156.055,220.575 154.5,223.5C 154.355,219.453 156.022,216.453 159.5,214.5 Z"/></g>
<g><path style="opacity:1" fill="#ed5f63" d="M 447.5,214.5 C 434.996,228.675 421.662,242.341 407.5,255.5C 407.238,254.022 407.571,252.689 408.5,251.5C 410.904,250.992 411.571,249.825 410.5,248C 412.25,246.246 412.917,244.079 412.5,241.5C 414.674,241.92 416.674,241.92 418.5,241.5C 420.727,236.436 424.227,232.436 429,229.5C 430.813,230.609 431.646,229.942 431.5,227.5C 432.5,227.5 433.5,227.5 434.5,227.5C 434.5,226.167 434.5,224.833 434.5,223.5C 435.833,223.5 437.167,223.5 438.5,223.5C 439.167,221.5 439.833,219.5 440.5,217.5C 441.833,217.5 443.167,217.5 444.5,217.5C 444.5,216.5 444.5,215.5 444.5,214.5C 445.5,214.5 446.5,214.5 447.5,214.5 Z"/></g>
<g><path style="opacity:1" fill="#e0696a" d="M 154.5,223.5 C 154.039,232.293 154.705,240.96 156.5,249.5C 154.469,246.578 153.302,243.245 153,239.5C 152.333,235.167 152.333,230.833 153,226.5C 153.232,225.263 153.732,224.263 154.5,223.5 Z"/></g>
<g><path style="opacity:1" fill="#de6f73" d="M 327.5,239.5 C 325.833,243.167 323.167,245.833 319.5,247.5C 321.833,244.5 324.5,241.833 327.5,239.5 Z"/></g>
<g><path style="opacity:1" fill="#f15858" d="M 547.5,269.5 C 549.303,273.782 551.137,278.115 553,282.5C 553.594,288.856 553.427,295.189 552.5,301.5C 551.034,306.432 548.534,310.765 545,314.5C 496.808,364.358 448.308,413.858 399.5,463C 395.427,465.191 391.094,466.691 386.5,467.5C 380.013,467.848 373.68,467.182 367.5,465.5C 358.291,461.629 352.291,454.963 349.5,445.5C 348.072,435.78 348.405,426.113 350.5,416.5C 354.555,409.111 360.222,403.445 367.5,399.5C 367.351,398.448 367.517,397.448 368,396.5C 411.804,351.029 455.971,305.862 500.5,261C 514.414,253.418 528.081,253.751 541.5,262C 544.118,264.106 546.118,266.606 547.5,269.5 Z"/></g>
<g><path style="opacity:1" fill="#eb7072" d="M 171.5,265.5 C 178.111,266.927 184.778,267.927 191.5,268.5C 188.024,269.643 184.358,269.81 180.5,269C 176.995,268.881 173.995,267.714 171.5,265.5 Z"/></g>
<g><path style="opacity:1" fill="#e57c7e" d="M 547.5,269.5 C 550.937,272.701 553.104,276.701 554,281.5C 554.667,287.167 554.667,292.833 554,298.5C 553.768,299.737 553.268,300.737 552.5,301.5C 553.427,295.189 553.594,288.856 553,282.5C 551.137,278.115 549.303,273.782 547.5,269.5 Z"/></g>
<g><path style="opacity:1" fill="#e7797d" d="M 282.5,285.5 C 279.861,290.139 276.194,293.806 271.5,296.5C 274.833,292.5 278.5,288.833 282.5,285.5 Z"/></g>
<g><path style="opacity:1" fill="#e98384" d="M 233.5,335.5 C 232.581,338.089 230.914,340.089 228.5,341.5C 229.419,338.911 231.086,336.911 233.5,335.5 Z"/></g>
<g><path style="opacity:1" fill="#e5676b" d="M 350.5,416.5 C 348.405,426.113 348.072,435.78 349.5,445.5C 347.132,441.611 346.132,437.278 346.5,432.5C 346.292,426.664 347.626,421.33 350.5,416.5 Z"/></g>
<g><path style="opacity:1" fill="#e46564" d="M 211.5,456.5 C 207.353,460.399 202.353,462.399 196.5,462.5C 191.463,462.587 186.463,462.254 181.5,461.5C 179.447,461.598 177.78,460.931 176.5,459.5C 188.487,461.501 200.153,460.501 211.5,456.5 Z"/></g>
<g><path style="opacity:1" fill="#f15858" d="M 415.5,583.5 C 414.201,580.316 413.201,576.983 412.5,573.5C 412.334,568.156 412.501,562.823 413,557.5C 414.707,555.091 415.54,552.425 415.5,549.5C 416.072,547.745 416.906,546.078 418,544.5C 435.728,525.94 453.561,507.607 471.5,489.5C 475.167,487.833 477.833,485.167 479.5,481.5C 486.846,473.154 494.846,465.487 503.5,458.5C 519.604,451.055 533.771,453.722 546,466.5C 553.134,475.647 555.468,485.98 553,497.5C 551.718,502.064 549.885,506.397 547.5,510.5C 520.043,539.458 492.043,567.958 463.5,596C 443.927,605.644 427.927,601.477 415.5,583.5 Z"/></g>
<g><path style="opacity:1" fill="#fc9b9b" d="M 181.5,461.5 C 186.463,462.254 191.463,462.587 196.5,462.5C 194.696,463.162 192.696,463.495 190.5,463.5C 187.186,463.657 184.186,462.991 181.5,461.5 Z"/></g>
<g><path style="opacity:1" fill="#df8184" d="M 367.5,465.5 C 373.68,467.182 380.013,467.848 386.5,467.5C 382.019,468.648 377.352,468.815 372.5,468C 370.509,467.626 368.842,466.793 367.5,465.5 Z"/></g>
<g><path style="opacity:1" fill="#e6777a" d="M 479.5,481.5 C 477.833,485.167 475.167,487.833 471.5,489.5C 473.833,486.5 476.5,483.833 479.5,481.5 Z"/></g>
<g><path style="opacity:1" fill="#e47676" d="M 415.5,549.5 C 415.54,552.425 414.707,555.091 413,557.5C 412.501,562.823 412.334,568.156 412.5,573.5C 411.515,569.366 411.182,565.032 411.5,560.5C 411.667,556.327 413,552.66 415.5,549.5 Z"/></g>
<g><path style="opacity:1" fill="#fadcd8" d="M 411.5,560.5 C 411.182,565.032 411.515,569.366 412.5,573.5C 413.201,576.983 414.201,580.316 415.5,583.5C 413.876,583.64 412.71,582.973 412,581.5C 410.418,574.372 410.251,567.372 411.5,560.5 Z"/></g>
</svg>
