<?xml version="1.0" encoding="UTF-8"?>
<!DOCTYPE svg PUBLIC "-//W3C//DTD SVG 1.1//EN" "http://www.w3.org/Graphics/SVG/1.1/DTD/svg11.dtd">
<svg xmlns="http://www.w3.org/2000/svg" version="1.1" width="200px" height="200px" style="shape-rendering:geometricPrecision; text-rendering:geometricPrecision; image-rendering:optimizeQuality; fill-rule:evenodd; clip-rule:evenodd" xmlns:xlink="http://www.w3.org/1999/xlink">
<g><path style="opacity:1" fill="#fefefe" d="M -0.5,-0.5 C 66.1667,-0.5 132.833,-0.5 199.5,-0.5C 199.5,66.1667 199.5,132.833 199.5,199.5C 132.833,199.5 66.1667,199.5 -0.5,199.5C -0.5,132.833 -0.5,66.1667 -0.5,-0.5 Z"/></g>
<g><path style="opacity:1" fill="#50565b" d="M 29.5,114.5 C 38.5,114.5 47.5,114.5 56.5,114.5C 56.5,117.833 56.5,121.167 56.5,124.5C 43.1667,124.5 29.8333,124.5 16.5,124.5C 16.5,108.167 16.5,91.8333 16.5,75.5C 20.5,75.5 24.5,75.5 28.5,75.5C 28.1712,88.6774 28.5045,101.677 29.5,114.5 Z"/></g>
<g><path style="opacity:1" fill="#7a8083" d="M 29.5,114.5 C 28.5045,101.677 28.1712,88.6774 28.5,75.5C 24.5,75.5 20.5,75.5 16.5,75.5C 16.5,91.8333 16.5,108.167 16.5,124.5C 15.5035,108.008 15.1702,91.3417 15.5,74.5C 20.1667,74.5 24.8333,74.5 29.5,74.5C 29.5,87.8333 29.5,101.167 29.5,114.5 Z"/></g>
<g><path style="opacity:1" fill="#50565c" d="M 87.5,94.5 C 95.1667,94.5 102.833,94.5 110.5,94.5C 110.5,97.5 110.5,100.5 110.5,103.5C 102.5,103.5 94.5,103.5 86.5,103.5C 86.5,107.167 86.5,110.833 86.5,114.5C 95.8333,114.5 105.167,114.5 114.5,114.5C 114.5,117.833 114.5,121.167 114.5,124.5C 101.167,124.5 87.8333,124.5 74.5,124.5C 74.5,108.167 74.5,91.8333 74.5,75.5C 87.5,75.5 100.5,75.5 113.5,75.5C 113.5,78.5 113.5,81.5 113.5,84.5C 104.5,84.5 95.5,84.5 86.5,84.5C 86.1872,88.0419 86.5206,91.3752 87.5,94.5 Z"/></g>
<g><path style="opacity:1" fill="#45936f" d="M 135.5,74.5 C 136.301,76.0418 136.634,77.7085 136.5,79.5C 136.167,79.5 135.833,79.5 135.5,79.5C 135.869,77.0065 135.203,76.3398 133.5,77.5C 133.285,75.8212 133.952,74.8212 135.5,74.5 Z"/></g>
<g><path style="opacity:1" fill="#515a5b" d="M 135.5,74.5 C 139.167,74.5 142.833,74.5 146.5,74.5C 146.5,80.1667 146.5,85.8333 146.5,91.5C 145.167,90.8333 144.167,89.8333 143.5,88.5C 141.823,85.9755 140.323,83.3088 139,80.5C 138.329,79.7476 137.496,79.4142 136.5,79.5C 136.634,77.7085 136.301,76.0418 135.5,74.5 Z"/></g>
<g><path style="opacity:1" fill="#7d8184" d="M 87.5,94.5 C 86.5206,91.3752 86.1872,88.0419 86.5,84.5C 95.5,84.5 104.5,84.5 113.5,84.5C 113.5,81.5 113.5,78.5 113.5,75.5C 100.5,75.5 87.5,75.5 74.5,75.5C 74.5,91.8333 74.5,108.167 74.5,124.5C 73.5035,108.008 73.1702,91.3417 73.5,74.5C 87.1667,74.5 100.833,74.5 114.5,74.5C 114.5,78.1667 114.5,81.8333 114.5,85.5C 105.5,85.5 96.5,85.5 87.5,85.5C 87.5,88.5 87.5,91.5 87.5,94.5 Z"/></g>
<g><path style="opacity:1" fill="#53595e" d="M 151.5,101.5 C 151.5,100.5 151.5,99.5 151.5,98.5C 157.512,90.9991 163.179,83.1658 168.5,75C 173.533,74.1711 178.533,74.3377 183.5,75.5C 177.624,83.5393 171.957,91.706 166.5,100C 172.407,107.807 178.073,115.807 183.5,124C 178.5,124.667 173.5,124.667 168.5,124C 163.42,115.983 157.754,108.483 151.5,101.5 Z"/></g>
<g><path style="opacity:1" fill="#2a9e60" d="M 136.5,79.5 C 137.496,79.4142 138.329,79.7476 139,80.5C 140.323,83.3088 141.823,85.9755 143.5,88.5C 140.002,86.3438 137.669,83.3438 136.5,79.5 Z"/></g>
<g><path style="opacity:1" fill="#06b752" d="M 135.5,79.5 C 135.833,79.5 136.167,79.5 136.5,79.5C 137.669,83.3438 140.002,86.3438 143.5,88.5C 144.167,89.8333 145.167,90.8333 146.5,91.5C 146.989,92.9952 147.655,94.3285 148.5,95.5C 148.5,97.8333 148.5,100.167 148.5,102.5C 147.5,102.5 146.5,102.5 145.5,102.5C 145.6,105.108 144.933,107.442 143.5,109.5C 142.038,114.297 139.371,118.297 135.5,121.5C 134.167,107.5 134.167,93.5 135.5,79.5 Z"/></g>
<g><path style="opacity:1" fill="#31b46c" d="M 135.5,79.5 C 134.167,93.5 134.167,107.5 135.5,121.5C 135.5,122.833 134.833,123.5 133.5,123.5C 133.5,108.167 133.5,92.8333 133.5,77.5C 135.203,76.3398 135.869,77.0065 135.5,79.5 Z"/></g>
<g><path style="opacity:1" fill="#31b568" d="M 148.5,95.5 C 149.272,96.6935 150.272,97.6935 151.5,98.5C 151.5,99.5 151.5,100.5 151.5,101.5C 149.736,102.326 148.402,103.659 147.5,105.5C 146.662,105.842 146.328,106.508 146.5,107.5C 145.5,108.167 144.5,108.833 143.5,109.5C 144.933,107.442 145.6,105.108 145.5,102.5C 146.5,102.5 147.5,102.5 148.5,102.5C 148.5,100.167 148.5,97.8333 148.5,95.5 Z"/></g>
<g><path style="opacity:1" fill="#afb2b6" d="M 110.5,94.5 C 111.479,97.6248 111.813,100.958 111.5,104.5C 103.5,104.5 95.5,104.5 87.5,104.5C 87.5,107.5 87.5,110.5 87.5,113.5C 96.6822,113.173 105.682,113.507 114.5,114.5C 105.167,114.5 95.8333,114.5 86.5,114.5C 86.5,110.833 86.5,107.167 86.5,103.5C 94.5,103.5 102.5,103.5 110.5,103.5C 110.5,100.5 110.5,97.5 110.5,94.5 Z"/></g>
<g><path style="opacity:1" fill="#505959" d="M 146.5,107.5 C 146.5,113.167 146.5,118.833 146.5,124.5C 142.167,124.5 137.833,124.5 133.5,124.5C 133.5,124.167 133.5,123.833 133.5,123.5C 134.833,123.5 135.5,122.833 135.5,121.5C 139.371,118.297 142.038,114.297 143.5,109.5C 144.5,108.833 145.5,108.167 146.5,107.5 Z"/></g>
<g><path style="opacity:1" fill="#b9bebf" d="M 147.5,105.5 C 147.5,112.167 147.5,118.833 147.5,125.5C 142.637,125.819 137.97,125.486 133.5,124.5C 137.833,124.5 142.167,124.5 146.5,124.5C 146.5,118.833 146.5,113.167 146.5,107.5C 146.328,106.508 146.662,105.842 147.5,105.5 Z"/></g>
</svg>
