<?xml version="1.0" encoding="UTF-8"?>
<!DOCTYPE svg PUBLIC "-//W3C//DTD SVG 1.1//EN" "http://www.w3.org/Graphics/SVG/1.1/DTD/svg11.dtd">
<svg xmlns="http://www.w3.org/2000/svg" version="1.1" width="448px" height="494px" style="shape-rendering:geometricPrecision; text-rendering:geometricPrecision; image-rendering:optimizeQuality; fill-rule:evenodd; clip-rule:evenodd" xmlns:xlink="http://www.w3.org/1999/xlink">
<g><path style="opacity:1" fill="#fdfefe" d="M -0.5,-0.5 C 148.833,-0.5 298.167,-0.5 447.5,-0.5C 447.5,164.167 447.5,328.833 447.5,493.5C 373.5,493.5 299.5,493.5 225.5,493.5C 241.435,483.191 257.435,472.857 273.5,462.5C 274.258,457.525 274.092,452.525 273,447.5C 271.62,433.798 272.787,420.465 276.5,407.5C 278.197,416.094 281.364,424.094 286,431.5C 290.134,436.481 295.3,439.814 301.5,441.5C 351.145,407.697 389.979,364.364 418,311.5C 430.984,284.233 438.984,255.566 442,225.5C 443.115,193.017 443.615,160.517 443.5,128C 443.167,99.8333 442.833,71.6667 442.5,43.5C 370.705,18.244 296.705,6.24396 220.5,7.5C 146.449,7.07784 74.4493,18.9112 4.5,43C 3.83536,70.929 3.50202,98.929 3.5,127C 3.40922,161.18 3.90922,195.346 5,229.5C 9.02465,263.28 19.358,294.947 36,324.5C 37.6968,314.103 41.3635,304.436 47,295.5C 52.2134,283.345 53.8801,270.678 52,257.5C 48.3393,243.381 48.6726,229.381 53,215.5C 64.2743,189.241 79.2743,165.574 98,144.5C 100.382,145.744 102.215,147.577 103.5,150C 104.448,150.483 105.448,150.649 106.5,150.5C 106.141,142.724 104.974,135.058 103,127.5C 97.19,101.626 106.023,82.7931 129.5,71C 134.419,70.2859 138.753,71.6192 142.5,75C 150.584,83.0799 157.918,91.7466 164.5,101C 196.084,99.5762 227.417,101.909 258.5,108C 267.318,110.551 275.984,113.384 284.5,116.5C 284.02,113.995 283.02,111.662 281.5,109.5C 291.418,102.21 302.418,97.0429 314.5,94C 322.674,91.8301 328.841,94.3301 333,101.5C 342.458,119.381 340.958,136.381 328.5,152.5C 334.303,158.114 339.137,164.447 343,171.5C 343.426,176.949 342.759,182.283 341,187.5C 339.604,189.527 337.938,189.86 336,188.5C 335.085,167.158 324.252,158.324 303.5,162C 295.6,166.298 292.433,172.798 294,181.5C 297.615,189.904 302.115,197.738 307.5,205C 311.833,205.667 316.167,205.667 320.5,205C 321.308,204.692 321.975,204.192 322.5,203.5C 317.239,203.119 313.072,200.786 310,196.5C 307.697,192.061 305.53,187.561 303.5,183C 306.157,178.539 310.157,176.373 315.5,176.5C 328.664,178.316 332.664,185.483 327.5,198C 327.905,198.945 328.572,199.612 329.5,200C 334.956,200.07 338.622,202.57 340.5,207.5C 340.766,211.605 340.266,215.605 339,219.5C 335.054,223.445 330.554,226.611 325.5,229C 323.109,232.28 322.942,235.78 325,239.5C 330.207,248.595 335.374,257.595 340.5,266.5C 346.425,280.849 345.592,294.849 338,308.5C 333.878,314.291 329.378,319.791 324.5,325C 309.76,328.368 300.927,322.535 298,307.5C 297.261,306.426 296.261,305.759 295,305.5C 290.94,308.758 287.44,312.592 284.5,317C 282.33,318.586 279.996,319.92 277.5,321C 262.38,325.115 247.046,327.948 231.5,329.5C 227.027,324.82 225.36,319.154 226.5,312.5C 226.153,303.702 227.986,295.369 232,287.5C 230.922,271.595 226.589,256.595 219,242.5C 215.673,239.718 211.839,237.885 207.5,237C 187.501,234.001 167.501,231.001 147.5,228C 139.424,226.217 132.924,222.05 128,215.5C 123.572,206.124 119.906,196.458 117,186.5C 113.197,181.259 109.53,181.259 106,186.5C 105.833,189.333 105.667,192.167 105.5,195C 107.774,212.827 107.941,230.661 106,248.5C 105.058,251.993 103.725,255.326 102,258.5C 95.3333,267.167 88.6667,275.833 82,284.5C 80.3921,287.382 79.0587,290.382 78,293.5C 77.5573,316.612 80.0573,339.278 85.5,361.5C 84.9663,376.064 89.133,389.064 98,400.5C 116.979,419.815 137.479,437.315 159.5,453C 180.061,466.773 200.728,480.273 221.5,493.5C 147.5,493.5 73.5,493.5 -0.5,493.5C -0.5,328.833 -0.5,164.167 -0.5,-0.5 Z"/></g>
<g><path style="opacity:1" fill="#1d417d" d="M 276.5,407.5 C 277.592,402.877 275.925,401.044 271.5,402C 260.721,412.779 249.887,423.613 239,434.5C 231.972,442.221 227.305,451.221 225,461.5C 223.688,472.122 223.188,482.789 223.5,493.5C 222.833,493.5 222.167,493.5 221.5,493.5C 200.728,480.273 180.061,466.773 159.5,453C 137.479,437.315 116.979,419.815 98,400.5C 89.133,389.064 84.9663,376.064 85.5,361.5C 83.9618,347.509 86.1285,334.175 92,321.5C 99.0569,312.108 105.724,302.442 112,292.5C 114.928,281.336 116.928,270.003 118,258.5C 119.828,256.193 121.494,256.526 123,259.5C 125.49,267.984 129.657,275.484 135.5,282C 150.319,288.162 165.485,293.329 181,297.5C 183.151,297.357 184.818,296.357 186,294.5C 187.881,287.213 189.548,279.88 191,272.5C 193.699,269.736 195.366,270.403 196,274.5C 196.333,280.833 196.667,287.167 197,293.5C 200.903,307.743 209.07,318.91 221.5,327C 224.72,328.352 228.053,329.186 231.5,329.5C 247.046,327.948 262.38,325.115 277.5,321C 279.996,319.92 282.33,318.586 284.5,317C 287.44,312.592 290.94,308.758 295,305.5C 296.261,305.759 297.261,306.426 298,307.5C 300.927,322.535 309.76,328.368 324.5,325C 329.378,319.791 333.878,314.291 338,308.5C 345.592,294.849 346.425,280.849 340.5,266.5C 342.901,255.063 344.901,243.563 346.5,232C 346.437,223.248 344.437,215.082 340.5,207.5C 338.622,202.57 334.956,200.07 329.5,200C 328.572,199.612 327.905,198.945 327.5,198C 332.664,185.483 328.664,178.316 315.5,176.5C 310.157,176.373 306.157,178.539 303.5,183C 305.53,187.561 307.697,192.061 310,196.5C 313.072,200.786 317.239,203.119 322.5,203.5C 321.975,204.192 321.308,204.692 320.5,205C 316.167,205.667 311.833,205.667 307.5,205C 302.115,197.738 297.615,189.904 294,181.5C 292.433,172.798 295.6,166.298 303.5,162C 324.252,158.324 335.085,167.158 336,188.5C 337.938,189.86 339.604,189.527 341,187.5C 342.759,182.283 343.426,176.949 343,171.5C 339.137,164.447 334.303,158.114 328.5,152.5C 340.958,136.381 342.458,119.381 333,101.5C 328.841,94.3301 322.674,91.8301 314.5,94C 302.418,97.0429 291.418,102.21 281.5,109.5C 283.02,111.662 284.02,113.995 284.5,116.5C 275.984,113.384 267.318,110.551 258.5,108C 227.417,101.909 196.084,99.5762 164.5,101C 157.918,91.7466 150.584,83.0799 142.5,75C 138.753,71.6192 134.419,70.2859 129.5,71C 106.023,82.7931 97.19,101.626 103,127.5C 104.974,135.058 106.141,142.724 106.5,150.5C 105.448,150.649 104.448,150.483 103.5,150C 102.215,147.577 100.382,145.744 98,144.5C 79.2743,165.574 64.2743,189.241 53,215.5C 48.6726,229.381 48.3393,243.381 52,257.5C 53.8801,270.678 52.2134,283.345 47,295.5C 41.3635,304.436 37.6968,314.103 36,324.5C 19.358,294.947 9.02465,263.28 5,229.5C 3.90922,195.346 3.40922,161.18 3.5,127C 3.50202,98.929 3.83536,70.929 4.5,43C 74.4493,18.9112 146.449,7.07784 220.5,7.5C 296.705,6.24396 370.705,18.244 442.5,43.5C 442.833,71.6667 443.167,99.8333 443.5,128C 443.615,160.517 443.115,193.017 442,225.5C 438.984,255.566 430.984,284.233 418,311.5C 389.979,364.364 351.145,407.697 301.5,441.5C 295.3,439.814 290.134,436.481 286,431.5C 281.364,424.094 278.197,416.094 276.5,407.5 Z"/></g>
<g><path style="opacity:1" fill="#1f427e" d="M 125.5,85.5 C 129.273,84.8224 132.106,86.1558 134,89.5C 141.271,103.907 149.104,117.907 157.5,131.5C 157.124,133.383 156.124,134.883 154.5,136C 147.288,140.206 140.955,145.539 135.5,152C 130.59,154.613 126.756,153.447 124,148.5C 116.965,134.324 113.631,119.324 114,103.5C 116.596,96.6237 120.43,90.6237 125.5,85.5 Z"/></g>
<g><path style="opacity:1" fill="#21437e" d="M 323.5,106.5 C 326.822,107.658 328.988,109.992 330,113.5C 331.248,121.796 330.248,129.796 327,137.5C 325.458,140.619 323.458,143.286 321,145.5C 314.985,140.976 309.151,136.31 303.5,131.5C 308.699,121.97 315.366,113.637 323.5,106.5 Z"/></g>
<g><path style="opacity:1" fill="#20437e" d="M 250.5,173.5 C 251.885,184.727 247.885,193.393 238.5,199.5C 231.062,200.898 230.562,199.231 237,194.5C 240.751,187.456 239.251,181.623 232.5,177C 219.118,170.24 208.285,173.074 200,185.5C 199.85,190.697 202.017,194.864 206.5,198C 209.715,199.774 213.048,201.274 216.5,202.5C 217.711,203.274 217.711,204.107 216.5,205C 206.582,207.022 197.915,204.688 190.5,198C 185.505,198.082 180.505,198.082 175.5,198C 173.022,194.315 172.856,190.482 175,186.5C 181.06,171.442 191.893,161.608 207.5,157C 215.897,156.13 224.23,156.463 232.5,158C 239.577,161.91 245.577,167.076 250.5,173.5 Z"/></g>
<g><path style="opacity:1" fill="#98bee4" d="M 250.5,173.5 C 255.647,179.775 259.814,186.775 263,194.5C 269.949,210.73 276.616,227.063 283,243.5C 284.158,248.307 283.324,252.64 280.5,256.5C 275.052,259.285 271.385,263.618 269.5,269.5C 268.21,268.942 267.377,267.942 267,266.5C 266.818,260.103 266.152,253.77 265,247.5C 260.278,234.389 255.278,221.389 250,208.5C 248.439,205.217 246.273,202.383 243.5,200C 241.866,199.506 240.199,199.34 238.5,199.5C 247.885,193.393 251.885,184.727 250.5,173.5 Z"/></g>
<g><path style="opacity:1" fill="#97bde4" d="M 231.5,329.5 C 228.053,329.186 224.72,328.352 221.5,327C 209.07,318.91 200.903,307.743 197,293.5C 196.667,287.167 196.333,280.833 196,274.5C 195.366,270.403 193.699,269.736 191,272.5C 189.548,279.88 187.881,287.213 186,294.5C 184.818,296.357 183.151,297.357 181,297.5C 165.485,293.329 150.319,288.162 135.5,282C 129.657,275.484 125.49,267.984 123,259.5C 121.494,256.526 119.828,256.193 118,258.5C 116.928,270.003 114.928,281.336 112,292.5C 105.724,302.442 99.0569,312.108 92,321.5C 86.1285,334.175 83.9618,347.509 85.5,361.5C 80.0573,339.278 77.5573,316.612 78,293.5C 79.0587,290.382 80.3921,287.382 82,284.5C 88.6667,275.833 95.3333,267.167 102,258.5C 103.725,255.326 105.058,251.993 106,248.5C 107.941,230.661 107.774,212.827 105.5,195C 105.667,192.167 105.833,189.333 106,186.5C 109.53,181.259 113.197,181.259 117,186.5C 119.906,196.458 123.572,206.124 128,215.5C 132.924,222.05 139.424,226.217 147.5,228C 167.501,231.001 187.501,234.001 207.5,237C 211.839,237.885 215.673,239.718 219,242.5C 226.589,256.595 230.922,271.595 232,287.5C 227.986,295.369 226.153,303.702 226.5,312.5C 225.36,319.154 227.027,324.82 231.5,329.5 Z"/></g>
<g><path style="opacity:1" fill="#98bee4" d="M 340.5,207.5 C 344.437,215.082 346.437,223.248 346.5,232C 344.901,243.563 342.901,255.063 340.5,266.5C 335.374,257.595 330.207,248.595 325,239.5C 322.942,235.78 323.109,232.28 325.5,229C 330.554,226.611 335.054,223.445 339,219.5C 340.266,215.605 340.766,211.605 340.5,207.5 Z"/></g>
<g><path style="opacity:1" fill="#20437e" d="M 269.5,269.5 C 271.385,263.618 275.052,259.285 280.5,256.5C 296.554,252.362 312.554,252.529 328.5,257C 329.931,257.465 331.097,258.299 332,259.5C 332.752,262.894 332.585,266.227 331.5,269.5C 325.745,272.224 319.745,274.391 313.5,276C 310.394,282.378 306.894,288.545 303,294.5C 300.975,296.693 298.475,297.693 295.5,297.5C 296.548,290.863 297.048,284.197 297,277.5C 294.228,275.239 291.062,273.739 287.5,273C 281.857,272.136 276.19,271.469 270.5,271C 269.944,270.617 269.611,270.117 269.5,269.5 Z"/></g>
<g><path style="opacity:1" fill="#fafbfc" d="M 277.5,330.5 C 284.508,330.334 291.508,330.5 298.5,331C 302.715,331.524 306.548,333.024 310,335.5C 311.854,338.652 311.521,341.652 309,344.5C 303.076,352.212 295.243,356.379 285.5,357C 272.049,358.136 258.716,357.47 245.5,355C 233.607,349.235 233.607,343.568 245.5,338C 256.113,334.649 266.779,332.149 277.5,330.5 Z"/></g>
<g><path style="opacity:1" fill="#97bde4" d="M 276.5,407.5 C 272.787,420.465 271.62,433.798 273,447.5C 274.092,452.525 274.258,457.525 273.5,462.5C 257.435,472.857 241.435,483.191 225.5,493.5C 224.833,493.5 224.167,493.5 223.5,493.5C 223.188,482.789 223.688,472.122 225,461.5C 227.305,451.221 231.972,442.221 239,434.5C 249.887,423.613 260.721,412.779 271.5,402C 275.925,401.044 277.592,402.877 276.5,407.5 Z"/></g>
</svg>
