<?xml version="1.0" encoding="UTF-8" standalone="no"?>
<svg
   xmlns:dc="http://purl.org/dc/elements/1.1/"
   xmlns:cc="http://creativecommons.org/ns#"
   xmlns:rdf="http://www.w3.org/1999/02/22-rdf-syntax-ns#"
   xmlns:svg="http://www.w3.org/2000/svg"
   xmlns="http://www.w3.org/2000/svg"
   id="svg4"
   xml:space="preserve"
   enable-background="new 0 0 200 200"
   viewBox="0 0 200 200"
   y="0px"
   x="0px"
   version="1.1"><metadata
     id="metadata10"><rdf:RDF><cc:Work
         rdf:about=""><dc:format>image/svg+xml</dc:format><dc:type
           rdf:resource="http://purl.org/dc/dcmitype/StillImage" /></cc:Work></rdf:RDF></metadata><defs
     id="defs8" /><path
     id="path2"
     d="m84 40v12h4v23.4l-24 36.002-24 35.996v12.602h120v-12.6l-24-36-24-36v-23.396h4v-12l-16-0.0036zm3.9961 3.998 12.004 0.0018h12v4h-4v28.599l13.133 19.699 13.133 19.701h-68.541l13.134-19.701 13.133-19.7v-28.602h-4zm17.871 49.637c-0.009-0.000321-0.74856 0.7326-1.6426 1.627l-1.627 1.625 0.59767 2.2266c0.32901 1.2246 0.60338 2.2307 0.60938 2.2363 0.007 0.005 0.99815 0.27501 2.2031 0.59767 1.205 0.32301 2.2091 0.58789 2.2324 0.58789s0.77232-0.73136 1.664-1.625l1.6211-1.625-0.5957-2.2129c-0.32799-1.2177-0.60362-2.2228-0.61328-2.2324-0.009-0.0089-1.0103-0.28303-2.2246-0.60938-1.2143-0.32632-2.2156-0.59506-2.2246-0.59571zm-16.961 5.6758c-0.01423 0-0.75802 0.73268-1.6523 1.627l-1.625 1.627 0.59571 2.2246c0.32834 1.2237 0.60235 2.2278 0.60937 2.2324 0.0071 0.005 1.0105 0.2762 2.2285 0.60157l2.2148 0.59178 1.6269-1.627c0.89504-0.89466 1.627-1.644 1.627-1.666 0-0.0217-0.26266-1.0202-0.58399-2.2168-0.32134-1.1966-0.59603-2.1866-0.60937-2.1992-0.01245-0.0125-1.0102-0.2867-2.2148-0.60938-1.205-0.31596-2.2024-0.58008-2.2168-0.58008zm-25.839 20.689h73.86l1.332 2 1.334 2h-79.196l1.332-2zm-5.3379 8h84.534l1.334 2 1.334 2h-89.874l1.332-2zm-5.3379 8h95.205l1.334 2 1.334 2h-100.54l1.334-2zm-5.3262 8h105.86l1.332 2 1.334 2h-111.2l1.334-2zm-3.0703 8h112v4h-112z"
     fill="#4FB5FA" /></svg>